<mxfile host="app.diagrams.net" agent="Mozilla/5.0 (Macintosh; Intel Mac OS X 10_15_7) AppleWebKit/537.36 (KHTML, like Gecko) Chrome/123.0.0.0 Safari/537.36" version="24.8.4">
  <diagram name="Page-1" id="qXRbhmsQQ-WjkEqmQHUM">
    <mxGraphModel dx="1026" dy="651" grid="1" gridSize="10" guides="1" tooltips="1" connect="1" arrows="1" fold="1" page="1" pageScale="1" pageWidth="850" pageHeight="1100" math="0" shadow="0">
      <root>
        <mxCell id="0" />
        <mxCell id="1" parent="0" />
        <mxCell id="yvtifQjkQSGxJQIHdGsD-57" value="" style="edgeStyle=orthogonalEdgeStyle;rounded=0;orthogonalLoop=1;jettySize=auto;html=1;" parent="1" source="yvtifQjkQSGxJQIHdGsD-2" target="yvtifQjkQSGxJQIHdGsD-6" edge="1">
          <mxGeometry relative="1" as="geometry" />
        </mxCell>
        <mxCell id="yvtifQjkQSGxJQIHdGsD-59" value="Hamster" style="edgeLabel;html=1;align=center;verticalAlign=middle;resizable=0;points=[];" parent="yvtifQjkQSGxJQIHdGsD-57" vertex="1" connectable="0">
          <mxGeometry x="-0.1333" y="-1" relative="1" as="geometry">
            <mxPoint as="offset" />
          </mxGeometry>
        </mxCell>
        <mxCell id="yvtifQjkQSGxJQIHdGsD-2" value="KV Store" style="shape=cylinder3;whiteSpace=wrap;html=1;boundedLbl=1;backgroundOutline=1;size=15;fillColor=#dae8fc;strokeColor=#6c8ebf;" parent="1" vertex="1">
          <mxGeometry x="210" y="220" width="60" height="80" as="geometry" />
        </mxCell>
        <mxCell id="yvtifQjkQSGxJQIHdGsD-4" value="原始特征" style="text;html=1;align=center;verticalAlign=middle;resizable=0;points=[];autosize=1;strokeColor=none;fillColor=none;" parent="1" vertex="1">
          <mxGeometry x="205" y="310" width="70" height="30" as="geometry" />
        </mxCell>
        <mxCell id="yvtifQjkQSGxJQIHdGsD-6" value="抽后特征&lt;div&gt;&lt;font color=&quot;#ff0000&quot;&gt;schema1&lt;/font&gt;&lt;/div&gt;" style="rounded=1;whiteSpace=wrap;html=1;fillColor=#f8cecc;strokeColor=#b85450;" parent="1" vertex="1">
          <mxGeometry x="360" y="220" width="120" height="80" as="geometry" />
        </mxCell>
        <mxCell id="yvtifQjkQSGxJQIHdGsD-13" style="edgeStyle=orthogonalEdgeStyle;rounded=0;orthogonalLoop=1;jettySize=auto;html=1;exitX=0.5;exitY=0;exitDx=0;exitDy=0;entryX=0.5;entryY=1;entryDx=0;entryDy=0;dashed=1;" parent="1" source="yvtifQjkQSGxJQIHdGsD-12" target="yvtifQjkQSGxJQIHdGsD-6" edge="1">
          <mxGeometry relative="1" as="geometry" />
        </mxCell>
        <mxCell id="yvtifQjkQSGxJQIHdGsD-14" value="&lt;font color=&quot;#0000ff&quot;&gt;使用&lt;/font&gt;" style="edgeLabel;html=1;align=center;verticalAlign=middle;resizable=0;points=[];" parent="yvtifQjkQSGxJQIHdGsD-13" vertex="1" connectable="0">
          <mxGeometry x="-0.025" y="2" relative="1" as="geometry">
            <mxPoint as="offset" />
          </mxGeometry>
        </mxCell>
        <mxCell id="yvtifQjkQSGxJQIHdGsD-17" style="edgeStyle=orthogonalEdgeStyle;rounded=0;orthogonalLoop=1;jettySize=auto;html=1;exitX=0.5;exitY=1;exitDx=0;exitDy=0;entryX=0.5;entryY=0;entryDx=0;entryDy=0;" parent="1" source="yvtifQjkQSGxJQIHdGsD-12" edge="1">
          <mxGeometry relative="1" as="geometry">
            <mxPoint x="420" y="510" as="targetPoint" />
          </mxGeometry>
        </mxCell>
        <mxCell id="yvtifQjkQSGxJQIHdGsD-39" value="dump" style="edgeLabel;html=1;align=center;verticalAlign=middle;resizable=0;points=[];" parent="yvtifQjkQSGxJQIHdGsD-17" vertex="1" connectable="0">
          <mxGeometry x="-0.16" y="-3" relative="1" as="geometry">
            <mxPoint as="offset" />
          </mxGeometry>
        </mxCell>
        <mxCell id="yvtifQjkQSGxJQIHdGsD-38" style="edgeStyle=orthogonalEdgeStyle;rounded=0;orthogonalLoop=1;jettySize=auto;html=1;exitX=0.75;exitY=0;exitDx=0;exitDy=0;" parent="1" source="yvtifQjkQSGxJQIHdGsD-12" target="yvtifQjkQSGxJQIHdGsD-27" edge="1">
          <mxGeometry relative="1" as="geometry">
            <mxPoint x="590" y="300" as="targetPoint" />
          </mxGeometry>
        </mxCell>
        <mxCell id="yvtifQjkQSGxJQIHdGsD-44" value="排序" style="edgeLabel;html=1;align=center;verticalAlign=middle;resizable=0;points=[];" parent="yvtifQjkQSGxJQIHdGsD-38" vertex="1" connectable="0">
          <mxGeometry x="-0.0159" y="-2" relative="1" as="geometry">
            <mxPoint x="1" y="1" as="offset" />
          </mxGeometry>
        </mxCell>
        <mxCell id="yvtifQjkQSGxJQIHdGsD-12" value="推理模型" style="rounded=1;whiteSpace=wrap;html=1;fillColor=#f8cecc;strokeColor=#b85450;" parent="1" vertex="1">
          <mxGeometry x="360" y="370" width="120" height="80" as="geometry" />
        </mxCell>
        <mxCell id="yvtifQjkQSGxJQIHdGsD-27" value="User" style="shape=umlActor;verticalLabelPosition=bottom;verticalAlign=top;html=1;outlineConnect=0;" parent="1" vertex="1">
          <mxGeometry x="610" y="230" width="30" height="60" as="geometry" />
        </mxCell>
        <mxCell id="yvtifQjkQSGxJQIHdGsD-30" value="&lt;span style=&quot;color: rgb(255, 0, 0); font-family: Helvetica; font-size: 12px; font-style: normal; font-variant-ligatures: normal; font-variant-caps: normal; font-weight: 400; letter-spacing: normal; orphans: 2; text-align: center; text-indent: 0px; text-transform: none; widows: 2; word-spacing: 0px; -webkit-text-stroke-width: 0px; white-space: normal; background-color: rgb(251, 251, 251); text-decoration-thickness: initial; text-decoration-style: initial; text-decoration-color: initial; display: inline !important; float: none;&quot;&gt;schema2&lt;/span&gt;" style="text;whiteSpace=wrap;html=1;" parent="1" vertex="1">
          <mxGeometry x="300" y="560" width="80" height="40" as="geometry" />
        </mxCell>
        <mxCell id="yvtifQjkQSGxJQIHdGsD-37" value="" style="edgeStyle=orthogonalEdgeStyle;rounded=0;orthogonalLoop=1;jettySize=auto;html=1;" parent="1" source="yvtifQjkQSGxJQIHdGsD-32" target="yvtifQjkQSGxJQIHdGsD-12" edge="1">
          <mxGeometry relative="1" as="geometry" />
        </mxCell>
        <mxCell id="yvtifQjkQSGxJQIHdGsD-40" value="&amp;nbsp;更新模型" style="edgeLabel;html=1;align=center;verticalAlign=middle;resizable=0;points=[];" parent="yvtifQjkQSGxJQIHdGsD-37" vertex="1" connectable="0">
          <mxGeometry x="0.1556" y="-1" relative="1" as="geometry">
            <mxPoint as="offset" />
          </mxGeometry>
        </mxCell>
        <mxCell id="yvtifQjkQSGxJQIHdGsD-32" value="训练任务&lt;div&gt;&lt;span style=&quot;color: rgb(255, 0, 0);&quot;&gt;schema3&lt;/span&gt;&lt;br&gt;&lt;/div&gt;" style="rounded=1;whiteSpace=wrap;html=1;fillColor=#f8cecc;strokeColor=#b85450;" parent="1" vertex="1">
          <mxGeometry x="570" y="370" width="120" height="80" as="geometry" />
        </mxCell>
        <mxCell id="yvtifQjkQSGxJQIHdGsD-56" value="" style="edgeStyle=orthogonalEdgeStyle;rounded=0;orthogonalLoop=1;jettySize=auto;html=1;" parent="1" source="yvtifQjkQSGxJQIHdGsD-47" target="yvtifQjkQSGxJQIHdGsD-49" edge="1">
          <mxGeometry relative="1" as="geometry" />
        </mxCell>
        <mxCell id="yvtifQjkQSGxJQIHdGsD-60" value="Flink 关联" style="edgeLabel;html=1;align=center;verticalAlign=middle;resizable=0;points=[];" parent="yvtifQjkQSGxJQIHdGsD-56" vertex="1" connectable="0">
          <mxGeometry x="-0.1" y="-3" relative="1" as="geometry">
            <mxPoint as="offset" />
          </mxGeometry>
        </mxCell>
        <mxCell id="yvtifQjkQSGxJQIHdGsD-47" value="MQ Store" style="shape=cylinder3;whiteSpace=wrap;html=1;boundedLbl=1;backgroundOutline=1;size=15;fillColor=#dae8fc;strokeColor=#6c8ebf;" parent="1" vertex="1">
          <mxGeometry x="210" y="510" width="60" height="80" as="geometry" />
        </mxCell>
        <mxCell id="yvtifQjkQSGxJQIHdGsD-48" value="用户事件" style="text;html=1;align=center;verticalAlign=middle;resizable=0;points=[];autosize=1;strokeColor=none;fillColor=none;" parent="1" vertex="1">
          <mxGeometry x="210" y="470" width="70" height="30" as="geometry" />
        </mxCell>
        <mxCell id="yvtifQjkQSGxJQIHdGsD-52" value="" style="edgeStyle=orthogonalEdgeStyle;rounded=0;orthogonalLoop=1;jettySize=auto;html=1;" parent="1" source="yvtifQjkQSGxJQIHdGsD-49" target="yvtifQjkQSGxJQIHdGsD-51" edge="1">
          <mxGeometry relative="1" as="geometry" />
        </mxCell>
        <mxCell id="yvtifQjkQSGxJQIHdGsD-49" value="线上特征KV" style="shape=cylinder3;whiteSpace=wrap;html=1;boundedLbl=1;backgroundOutline=1;size=15;fillColor=#dae8fc;strokeColor=#6c8ebf;" parent="1" vertex="1">
          <mxGeometry x="390" y="510" width="60" height="80" as="geometry" />
        </mxCell>
        <mxCell id="yvtifQjkQSGxJQIHdGsD-51" value="样本&lt;div&gt;OSS&lt;/div&gt;" style="shape=note;whiteSpace=wrap;html=1;backgroundOutline=1;darkOpacity=0.05;fillColor=#fff2cc;strokeColor=#d6b656;" parent="1" vertex="1">
          <mxGeometry x="590" y="510" width="80" height="80" as="geometry" />
        </mxCell>
        <mxCell id="yvtifQjkQSGxJQIHdGsD-53" style="edgeStyle=orthogonalEdgeStyle;rounded=0;orthogonalLoop=1;jettySize=auto;html=1;exitX=0.5;exitY=1;exitDx=0;exitDy=0;entryX=0.5;entryY=0;entryDx=0;entryDy=0;dashed=1;entryPerimeter=0;" parent="1" source="yvtifQjkQSGxJQIHdGsD-32" target="yvtifQjkQSGxJQIHdGsD-51" edge="1">
          <mxGeometry relative="1" as="geometry">
            <mxPoint x="430" y="380" as="sourcePoint" />
            <mxPoint x="430" y="310" as="targetPoint" />
          </mxGeometry>
        </mxCell>
        <mxCell id="yvtifQjkQSGxJQIHdGsD-54" value="&lt;font color=&quot;#0000ff&quot;&gt;读取&lt;/font&gt;" style="edgeLabel;html=1;align=center;verticalAlign=middle;resizable=0;points=[];" parent="yvtifQjkQSGxJQIHdGsD-53" vertex="1" connectable="0">
          <mxGeometry x="-0.025" y="2" relative="1" as="geometry">
            <mxPoint as="offset" />
          </mxGeometry>
        </mxCell>
      </root>
    </mxGraphModel>
  </diagram>
</mxfile>
